<svg width="27" height="27" viewBox="0 0 27 27" fill="none" xmlns="http://www.w3.org/2000/svg">
<path fill-rule="evenodd" clip-rule="evenodd" d="M13.5 24.3002C16.3644 24.3002 19.1114 23.1623 21.1368 21.1369C23.1622 19.1116 24.3 16.3645 24.3 13.5002C24.3 10.6359 23.1622 7.88883 21.1368 5.86344C19.1114 3.83805 16.3644 2.7002 13.5 2.7002C10.6357 2.7002 7.88865 3.83805 5.86326 5.86344C3.83787 7.88883 2.70001 10.6359 2.70001 13.5002C2.70001 16.3645 3.83787 19.1116 5.86326 21.1369C7.88865 23.1623 10.6357 24.3002 13.5 24.3002ZM14.85 8.1002C14.85 7.74215 14.7078 7.39878 14.4546 7.1456C14.2014 6.89243 13.8581 6.7502 13.5 6.7502C13.142 6.7502 12.7986 6.89243 12.5454 7.1456C12.2922 7.39878 12.15 7.74215 12.15 8.1002V13.5002C12.1501 13.8582 12.2924 14.2015 12.5456 14.4546L16.3634 18.2738C16.4888 18.3992 16.6377 18.4987 16.8016 18.5666C16.9655 18.6345 17.1411 18.6694 17.3185 18.6694C17.4959 18.6694 17.6715 18.6345 17.8354 18.5666C17.9993 18.4987 18.1482 18.3992 18.2736 18.2738C18.399 18.1484 18.4985 17.9995 18.5664 17.8356C18.6343 17.6717 18.6692 17.4961 18.6692 17.3187C18.6692 17.1413 18.6343 16.9656 18.5664 16.8018C18.4985 16.6379 18.399 16.489 18.2736 16.3635L14.85 12.9413V8.1002Z" fill="white"/>
</svg>
