<svg width="32" height="32" viewBox="0 0 32 32" fill="none" xmlns="http://www.w3.org/2000/svg">
<path fill-rule="evenodd" clip-rule="evenodd" d="M16 2.6665C19.1826 2.6665 22.2348 3.93079 24.4853 6.18122C26.7357 8.43166 28 11.4839 28 14.6665C28 18.7652 25.7653 22.1198 23.4107 24.5265C22.2342 25.7159 20.9506 26.7943 19.576 27.7478L19.008 28.1345L18.7413 28.3118L18.2387 28.6318L17.7907 28.9052L17.236 29.2278C16.8595 29.4427 16.4335 29.5558 16 29.5558C15.5665 29.5558 15.1405 29.4427 14.764 29.2278L14.2093 28.9052L13.516 28.4785L13.26 28.3118L12.7133 27.9478C11.2304 26.9445 9.8492 25.7986 8.58933 24.5265C6.23467 22.1185 4 18.7652 4 14.6665C4 11.4839 5.26428 8.43166 7.51472 6.18122C9.76515 3.93079 12.8174 2.6665 16 2.6665ZM16 5.33317C13.5246 5.33317 11.1507 6.3165 9.40034 8.06684C7.65 9.81718 6.66667 12.1911 6.66667 14.6665C6.66667 17.7625 8.36267 20.4798 10.4947 22.6612C11.4114 23.5892 12.4022 24.4409 13.4573 25.2078L14.068 25.6425C14.2653 25.7803 14.4551 25.9083 14.6373 26.0265L15.1573 26.3598L15.6147 26.6385L16 26.8638L16.6067 26.5052L17.096 26.1985C17.3564 26.0332 17.6351 25.8478 17.932 25.6425L18.5427 25.2078C19.5978 24.4409 20.5886 23.5892 21.5053 22.6612C23.6373 20.4812 25.3333 17.7625 25.3333 14.6665C25.3333 12.1911 24.35 9.81718 22.5997 8.06684C20.8493 6.3165 18.4754 5.33317 16 5.33317ZM16 9.33317C17.4145 9.33317 18.771 9.89507 19.7712 10.8953C20.7714 11.8955 21.3333 13.252 21.3333 14.6665C21.3333 16.081 20.7714 17.4375 19.7712 18.4377C18.771 19.4379 17.4145 19.9998 16 19.9998C14.5855 19.9998 13.229 19.4379 12.2288 18.4377C11.2286 17.4375 10.6667 16.081 10.6667 14.6665C10.6667 13.252 11.2286 11.8955 12.2288 10.8953C13.229 9.89507 14.5855 9.33317 16 9.33317ZM16 11.9998C15.2928 11.9998 14.6145 12.2808 14.1144 12.7809C13.6143 13.281 13.3333 13.9593 13.3333 14.6665C13.3333 15.3737 13.6143 16.052 14.1144 16.5521C14.6145 17.0522 15.2928 17.3332 16 17.3332C16.7072 17.3332 17.3855 17.0522 17.8856 16.5521C18.3857 16.052 18.6667 15.3737 18.6667 14.6665C18.6667 13.9593 18.3857 13.281 17.8856 12.7809C17.3855 12.2808 16.7072 11.9998 16 11.9998Z" fill="white"/>
</svg>
